<svg width="171" height="36" viewBox="0 0 171 36" fill="none" xmlns="http://www.w3.org/2000/svg">
<path d="M4.69744 28.6835V16.0045H17.0022V28.6835H21.6997V0H17.0022V12.1385H4.69744V0H0V28.6835H4.69744Z" fill="#E2FF73"/>
<path d="M34.6875 35.7504L44.1239 7.89835H39.5927L33.8145 25.0669L27.8699 7.89835H23.2972L29.6575 26.2724H33.3988L30.1979 35.7504H34.6875Z" fill="#E2FF73"/>
<path d="M49.2137 35.7504V24.3186H49.3384C50.3361 27.1869 52.7471 29.0992 55.9065 29.0992C61.56 29.0992 64.6362 24.1107 64.6362 18.2909C64.6362 12.4711 61.4353 7.48265 55.9065 7.48265C52.7471 7.48265 50.3361 9.35331 49.3384 12.2217H49.2137V7.89835H44.7656V35.7504H49.2137ZM49.0474 18.2909C49.0474 13.8429 50.9596 10.8498 54.4515 10.8498C57.9018 10.8498 59.8556 13.8429 59.8556 18.2909C59.8556 22.6974 57.9018 25.732 54.4515 25.732C50.9596 25.732 49.0474 22.6974 49.0474 18.2909Z" fill="#E2FF73"/>
<path d="M84.4626 22.2401H79.9315C79.4326 23.9029 78.2687 25.732 75.5666 25.732C72.4073 25.732 70.204 23.5288 69.9962 19.7459H84.8368C85.4603 12.5126 81.3864 7.48265 75.1925 7.48265C68.9985 7.48265 65.465 12.5542 65.465 18.2909C65.465 24.0276 69.0816 29.0992 75.2756 29.0992C80.3472 29.0992 83.5897 26.3555 84.4626 22.2401ZM75.1925 10.8498C78.2271 10.8498 80.0146 13.0115 80.3056 16.3787H70.0378C70.3287 13.0115 72.1578 10.8498 75.1925 10.8498Z" fill="#E2FF73"/>
<path d="M91.2779 28.6835V16.9191C91.2779 13.1362 92.8991 12.0138 96.7652 12.0138H97.4718V7.48265C94.2709 7.48265 92.1093 9.06232 91.2363 11.9722H91.1532V7.89835H86.7467V28.6835H91.2779Z" fill="#E2FF73"/>
<path d="M112.53 28.6835H101.985V26.5803H99.8821V24.4772H97.779V11.8296H99.8821V9.72648H101.985V7.62335H112.53V9.72648H114.633V11.8296H116.736V16.0503H112.53V13.9327H110.412V11.8296H104.088V13.9327H101.985V22.3741H104.088V24.4772H110.412V22.3741H112.53V20.2565H116.736V24.4772H114.633V26.5803H112.53V28.6835Z" fill="#E2FF73"/>
<path d="M143.806 28.6835H139.6V7.62335H143.806V9.72648H145.909V7.62335H151.181V11.8296H145.909V13.9327H143.806V28.6835Z" fill="#E2FF73"/>
<path d="M166.294 28.6835H155.749V26.5803H153.646V24.4772H151.543V11.8296H153.646V9.72648H155.749V7.62335H166.294V9.72648H168.397V11.8296H170.5V19.205H155.749V22.3741H157.852V24.4772H164.176V22.3741H170.5V24.4772H168.397V26.5803H166.294V28.6835ZM155.749 16.0503H166.294V13.9327H164.176V11.8296H157.852V13.9327H155.749V16.0503Z" fill="#E2FF73"/>
<g clip-path="url(#clip0_25_1264)">
<path d="M120.59 10.7502C120.548 10.7082 120.498 10.6737 120.456 10.6317C116.276 14.8117 116.276 21.6039 120.46 25.7878C120.502 25.7457 120.552 25.7113 120.594 25.6692C124.709 21.5465 124.709 14.8691 120.59 10.7502Z" fill="#E2FF73"/>
<path d="M120.471 10.6164C120.514 10.6584 120.548 10.7082 120.59 10.7502C124.709 14.8691 131.386 14.8691 135.505 10.7502C135.547 10.7082 135.582 10.6584 135.624 10.6164C131.444 6.4363 124.655 6.43248 120.471 10.6164Z" fill="#E2FF73"/>
<path d="M120.59 25.6654C120.548 25.7075 120.514 25.7572 120.471 25.7992C124.655 29.9831 131.444 29.9793 135.631 25.7992C135.589 25.7572 135.555 25.7075 135.513 25.6654C131.386 21.5465 124.709 21.5465 120.59 25.6654Z" fill="#E2FF73"/>
<path d="M135.643 10.6278C135.601 10.6699 135.551 10.7043 135.509 10.7464C131.39 14.8653 131.39 21.5427 135.509 25.6616C135.551 25.7036 135.601 25.7381 135.643 25.7801C139.827 21.5962 139.823 14.8079 135.643 10.6202L135.643 10.6278Z" fill="#E2FF73"/>
</g>
<defs>
<clipPath id="clip0_25_1264">
<rect width="21.4556" height="21.4556" fill="white" transform="translate(112.88 18.2078) rotate(-45)"/>
</clipPath>
</defs>
</svg>
